<svg xmlns="http://www.w3.org/2000/svg" enable-background="new 0 0 24 24" viewBox="0 0 24 24" id="facebook"><path fill="#303c42" d="M21 1H3c-1.103 0-2 .897-2 2v18c0 1.103.897 2 2 2h8.5a.5.5 0 0 0 .5-.5v-8a.5.5 0 0 0-.5-.5h-1.479v-2H11.5a.5.5 0 0 0 .5-.5v-2C12 7.57 13.57 6 15.5 6H18v2h-2.5c-.827 0-1.5.673-1.5 1.5v2a.5.5 0 0 0 .5.5h3.41l-.333 2H14.5a.5.5 0 0 0-.5.5v8a.5.5 0 0 0 .5.5H21c1.103 0 2-.897 2-2V3c0-1.103-.897-2-2-2z"></path><path fill="#5262bc" d="M22 21c0 .551-.449 1-1 1h-6v-7h3a.5.5 0 0 0 .493-.418l.5-3A.5.5 0 0 0 18.5 11H15V9.5a.5.5 0 0 1 .5-.5h3a.5.5 0 0 0 .5-.5v-3a.5.5 0 0 0-.5-.5h-3A4.505 4.505 0 0 0 11 9.5V11H9.521a.5.5 0 0 0-.5.5v3a.5.5 0 0 0 .5.5H11v7H3c-.551 0-1-.449-1-1V3c0-.551.449-1 1-1h18c.551 0 1 .449 1 1v18z"></path><path fill="#fff" d="M2.5 21.5v-18c0-.551.449-1 1-1h18a.98.98 0 0 1 .408.092A.999.999 0 0 0 21 2H3c-.551 0-1 .449-1 1v18c0 .405.245.751.592.908A.98.98 0 0 1 2.5 21.5z" opacity=".2"></path><linearGradient id="a" x1="13.688" x2="23.382" y1="10.337" y2="20.031" gradientUnits="userSpaceOnUse"><stop offset="0" stop-opacity=".1"></stop><stop offset="1" stop-opacity="0"></stop></linearGradient><path fill="url(#a)" d="M9.253 14.912 11 16.658V15H9.521a.49.49 0 0 1-.268-.088zm9.611-9.75A.493.493 0 0 1 19 5.5v3a.5.5 0 0 1-.5.5h-3a.5.5 0 0 0-.5.5V11h3.5a.5.5 0 0 1 .493.582l-.5 3A.5.5 0 0 1 18 15h-3v7h6c.551 0 1-.449 1-1V8.297l-3.136-3.135z"></path><linearGradient id="b" x1="-.652" x2="24.652" y1="6.1" y2="17.9" gradientUnits="userSpaceOnUse"><stop offset="0" stop-color="#fff" stop-opacity=".2"></stop><stop offset="1" stop-color="#fff" stop-opacity="0"></stop></linearGradient><path fill="url(#b)" d="M21 1H3c-1.103 0-2 .897-2 2v18c0 1.103.897 2 2 2h8.5a.5.5 0 0 0 .5-.5v-8a.5.5 0 0 0-.5-.5h-1.479v-2H11.5a.5.5 0 0 0 .5-.5v-2C12 7.57 13.57 6 15.5 6H18v2h-2.5c-.827 0-1.5.673-1.5 1.5v2a.5.5 0 0 0 .5.5h3.41l-.333 2H14.5a.5.5 0 0 0-.5.5v8a.5.5 0 0 0 .5.5H21c1.103 0 2-.897 2-2V3c0-1.103-.897-2-2-2z"></path></svg>