<svg xmlns="http://www.w3.org/2000/svg" viewBox="0 0 24 24" id="whatsapp"><path fill="#303c42" d="M12 0C5.383 0 0 5.383 0 12c0 2.31.655 4.543 1.896 6.476L.033 23.32a.502.502 0 0 0 .635.651l4.999-1.785A11.94 11.94 0 0 0 12 24c6.617 0 12-5.383 12-12S18.617 0 12 0z"></path><path fill="#00e676" d="M12 23c-2.132 0-4.206-.618-5.998-1.787a.495.495 0 0 0-.441-.052l-4.203 1.501 1.564-4.067a.5.5 0 0 0-.052-.459A10.945 10.945 0 0 1 1 12C1 5.935 5.935 1 12 1s11 4.935 11 11-4.935 11-11 11z"></path><path d="M15.719 1.661c3.797 1.736 6.447 5.561 6.447 10.002 0 6.065-4.935 11-11 11-1.277 0-2.532-.226-3.72-.655C8.872 22.659 10.42 23 12 23c6.065 0 11-4.935 11-11 0-4.759-3.043-8.809-7.281-10.339z" opacity=".1"></path><path fill="#fff" d="m1.358 22.663.936-.334 1.211-3.15a.5.5 0 0 0-.052-.459 10.945 10.945 0 0 1-1.87-6.136c0-6.065 4.935-11 11-11 2.885 0 5.505 1.125 7.469 2.948C18.042 2.365 15.181 1 12 1 5.935 1 1 5.935 1 12c0 2.198.647 4.32 1.87 6.136a.5.5 0 0 1 .052.459l-1.564 4.068z" opacity=".2"></path><path fill="#303c42" d="M17.721 14.051c-.001 0-1.225-.602-1.992-.996-.865-.444-1.887.39-2.368.866-.436-.169-1.3-.568-2.007-1.274s-1.105-1.571-1.274-2.007c.476-.481 1.311-1.5.866-2.368-.396-.768-.997-1.992-.997-1.993A.5.5 0 0 0 9.5 6h-1C7.375 6 6 7.384 6 9c0 1.57 1.879 4.586 3.146 5.854S13.43 18 15 18c1.616 0 3-1.375 3-2.5v-1a.5.5 0 0 0-.279-.449z"></path><path fill="#fff" d="M17 15.5c0 .565-.935 1.5-2 1.5-1.159 0-3.927-1.634-5.146-2.854S7 10.159 7 9c0-1.065.935-2 1.5-2h.689c.203.41.586 1.183.866 1.729.122.237-.376.946-.886 1.396a.5.5 0 0 0-.149.514c.018.063.456 1.543 1.627 2.715s2.652 1.609 2.715 1.627a.5.5 0 0 0 .514-.149c.451-.51 1.158-1.007 1.396-.886.545.28 1.319.664 1.729.866v.688z"></path><linearGradient id="a" x1="7.364" x2="19.255" y1="8.39" y2="20.28" gradientUnits="userSpaceOnUse"><stop offset="0" stop-opacity=".1"></stop><stop offset="1" stop-opacity="0"></stop></linearGradient><path fill="url(#a)" d="M17.938 14.282A.5.5 0 0 1 18 14.5v1c0 1.125-1.384 2.5-3 2.5-1.57 0-4.586-1.879-5.854-3.146l7.232 7.232a11.061 11.061 0 0 0 4.999-4.364l-3.439-3.44zm-7.859-3.642c.169.436.568 1.3 1.274 2.007s1.571 1.105 2.007 1.274c.481-.476 1.503-1.31 2.368-.866.72.37 1.829.916 1.965.983L9.962 6.306c.067.136.613 1.245.983 1.966.445.867-.39 1.887-.866 2.368zm-.374-4.591-.005.008c.006.003.013.003.018.005l-.013-.013z"></path><linearGradient id="b" x1=".326" x2="22.076" y1="8.643" y2="18.786" gradientUnits="userSpaceOnUse"><stop offset="0" stop-color="#fff" stop-opacity=".2"></stop><stop offset="1" stop-color="#fff" stop-opacity="0"></stop></linearGradient><path fill="url(#b)" d="M12 0C5.383 0 0 5.383 0 12c0 2.31.655 4.543 1.896 6.476L.033 23.32a.502.502 0 0 0 .635.651l4.999-1.785A11.94 11.94 0 0 0 12 24c6.617 0 12-5.383 12-12S18.617 0 12 0z"></path></svg>